<svg xmlns="http://www.w3.org/2000/svg" viewBox="0 0 45.19 49.67"><defs><style>.cls-1{fill:#a1a6dc;}</style></defs><title>Asset 12</title><g id="Layer_2" data-name="Layer 2"><g id="Layer_1-2" data-name="Layer 1"><path class="cls-1" d="M39.25,45.38v2.56a1.58,1.58,0,0,1-1.36,1.73H34.52a1.58,1.58,0,0,1-1.36-1.73V45.38Z"/><path class="cls-1" d="M12.44,45.38v2.56a1.59,1.59,0,0,1-1.37,1.73H7.71a1.58,1.58,0,0,1-1.36-1.73V45.38Z"/><path class="cls-1" d="M44.64,4.19h0S42.4,0,22.6,0,.53,4.19.53,4.19h0A2.43,2.43,0,0,0,0,5.72V41.23a2.5,2.5,0,0,0,2.5,2.49H42.7a2.5,2.5,0,0,0,2.49-2.49V5.72A2.43,2.43,0,0,0,44.64,4.19ZM12.48,37.44a1,1,0,0,1-1-1,2.13,2.13,0,1,0-4.25,0,1,1,0,0,1-2,0,4.13,4.13,0,1,1,8.25,0A1,1,0,0,1,12.48,37.44Zm26.81,0a1,1,0,0,1-1-1,2.12,2.12,0,0,0-4.24,0,1,1,0,0,1-2,0,4.12,4.12,0,0,1,8.24,0A1,1,0,0,1,39.29,37.43Zm2.09-11.31a1.25,1.25,0,0,1-1.25,1.24H5.06a1.25,1.25,0,0,1-1.25-1.24v-18A1.26,1.26,0,0,1,5.06,6.91H40.13a1.25,1.25,0,0,1,1.25,1.25Z"/></g></g></svg>