<svg xmlns="http://www.w3.org/2000/svg" viewBox="0 0 24 24"><defs><style>.cls-1{fill:none;stroke:#303c42;stroke-linecap:round;stroke-linejoin:round;}</style></defs><title>Asset 7</title><g id="Layer_2" data-name="Layer 2"><g id="Bus_2" data-name="Bus 2"><path class="cls-1" d="M17.2.5H6.8A3.5,3.5,0,0,0,3.31,3.79L2.5,17.41v.18h0A2.91,2.91,0,0,0,5.41,20.5H18.59a2.91,2.91,0,0,0,2.91-2.91h0v-.18L20.69,3.79A3.5,3.5,0,0,0,17.2.5Z"/><path class="cls-1" d="M4.5,20.35V22.5a1,1,0,0,0,1,1h2a1,1,0,0,0,1-1v-2"/><path class="cls-1" d="M15.5,20.5v2a1,1,0,0,0,1,1h2a1,1,0,0,0,1-1V20.35"/><circle class="cls-1" cx="7" cy="17" r="1.5"/><circle class="cls-1" cx="17" cy="17" r="1.5"/><polygon class="cls-1" points="5.5 4.5 5 11.5 19 11.5 18.5 4.5 5.5 4.5"/><rect class="cls-1" x="9.5" y="2" width="5" height="1"/><rect class="cls-1" x="0.5" y="5.5" width="1" height="3"/><rect class="cls-1" x="22.5" y="5.5" width="1" height="3"/><line class="cls-1" x1="22.5" y1="5.5" x2="20.79" y2="5.5"/><line class="cls-1" x1="1.5" y1="5.5" x2="3.21" y2="5.5"/></g></g></svg>