<svg xmlns="http://www.w3.org/2000/svg" viewBox="0 0 24 20"><defs><style>.cls-1{fill:none;stroke:#303c42;stroke-linecap:round;stroke-linejoin:round;}</style></defs><title>Asset 4</title><g id="Layer_2" data-name="Layer 2"><g id="School_Bus" data-name="School Bus"><path class="cls-1" d="M5,17.5H19A1.5,1.5,0,0,0,20.5,16V3.35A1.47,1.47,0,0,0,19.59,2,20.33,20.33,0,0,0,4.41,2,1.47,1.47,0,0,0,3.5,3.35V16A1.5,1.5,0,0,0,5,17.5Z"/><polyline class="cls-1" points="4.5 17.41 4.5 19.5 7.5 19.5 7.5 17.5"/><polyline class="cls-1" points="16.5 17.5 16.5 19.5 19.5 19.5 19.5 17.41"/><rect class="cls-1" x="0.5" y="6.5" width="1" height="2"/><rect class="cls-1" x="22.5" y="6.5" width="1" height="2"/><polyline class="cls-1" points="23 6.5 23 4.5 1 4.5 1 6.5"/><line class="cls-1" x1="9.5" y1="13.5" x2="14.5" y2="13.5"/><line class="cls-1" x1="9.5" y1="15.5" x2="14.5" y2="15.5"/><line class="cls-1" x1="3.5" y1="11.5" x2="20.5" y2="11.5"/><rect class="cls-1" x="10.5" y="2" width="3" height="1"/><line class="cls-1" x1="12" y1="4.5" x2="12" y2="11.5"/><circle class="cls-1" cx="6.5" cy="14.5" r="1"/><circle class="cls-1" cx="17.5" cy="14.5" r="1"/></g></g></svg>