<svg xmlns="http://www.w3.org/2000/svg" viewBox="0 0 61.54 81.67"><defs><style>.cls-1,.cls-4{fill:#5c45a0;}.cls-1,.cls-2{stroke:#262626;stroke-width:2px;}.cls-1,.cls-2,.cls-3,.cls-4{stroke-miterlimit:10;}.cls-2{fill:#fff;}.cls-3{fill:none;}.cls-3,.cls-4{stroke:#231f20;stroke-width:0.25px;}</style></defs><title>Asset 9</title><g id="Layer_2" data-name="Layer 2"><g id="Layer_1-2" data-name="Layer 1"><path class="cls-1" d="M30.77,1A29.77,29.77,0,0,0,1,30.77C1,65,30.77,80.54,30.77,80.54S60.54,65,60.54,30.77A29.77,29.77,0,0,0,30.77,1Z"/><circle class="cls-2" cx="30.77" cy="30.44" r="25.91"/><path class="cls-3" d="M22.22,43.57v9.22l.66.25V43.57Z"/><path class="cls-3" d="M38.66,43.57V53l.66-.25V43.57Z"/><path class="cls-3" d="M30.77,32.85A12.63,12.63,0,1,1,43.4,20.22,12.63,12.63,0,0,1,30.77,32.85Z"/><circle class="cls-4" cx="30.77" cy="20.22" r="12.63" transform="translate(0.31 40.91) rotate(-67.5)"/><path class="cls-4" d="M45.5,37.92a5,5,0,0,0-5-4.39H21a5,5,0,0,0-5,4.39H16V49.25a23.7,23.7,0,0,0,6.24,3.54V43.57h.66V53a24.07,24.07,0,0,0,15.78,0V43.57h.66v9.22a23.7,23.7,0,0,0,6.24-3.54V37.92Z"/></g></g></svg>