<svg xmlns="http://www.w3.org/2000/svg" viewBox="0 0 17.74 40.42"><title>current-location</title><g id="Layer_2" data-name="Layer 2"><g id="Layer_3" data-name="Layer 3"><path d="M4.14,21l3.31,9.52a1.51,1.51,0,0,0,2.84,0L13.61,21a14.6,14.6,0,0,1-4.74.8A14.49,14.49,0,0,1,4.14,21Z" style="fill:none"/><path d="M8.87,13.14c3.17,0,5.74-2.27,5.74-5.07S12,3,8.87,3,3.13,5.27,3.13,8.07,5.7,13.14,8.87,13.14Z" style="fill:none"/><path d="M16.73,16.58h0a1.5,1.5,0,0,0-1.61.42h0a11.59,11.59,0,0,1-12.61-.11A1.5,1.5,0,0,0,.08,18.49l7.3,20.93a1.49,1.49,0,0,0,1.41,1H9a1.5,1.5,0,0,0,1.42-1l7.29-20.93A1.5,1.5,0,0,0,16.73,16.58Zm-6.44,14a1.51,1.51,0,0,1-2.84,0L4.14,21a14.49,14.49,0,0,0,4.73.79,14.6,14.6,0,0,0,4.74-.8Z"/><path d="M8.87,16.14c4.82,0,8.74-3.62,8.74-8.07S13.69,0,8.87,0,.13,3.62.13,8.07,4.05,16.14,8.87,16.14ZM8.87,3C12,3,14.61,5.27,14.61,8.07S12,13.14,8.87,13.14,3.13,10.87,3.13,8.07,5.7,3,8.87,3Z"/></g></g></svg>