<svg xmlns="http://www.w3.org/2000/svg" viewBox="0 0 24 24"><defs><style>.cls-1{fill:none;stroke:#303c42;stroke-linecap:round;stroke-linejoin:round;}</style></defs><title>Asset 5</title><g id="Layer_2" data-name="Layer 2"><g id="Trollaybus"><path class="cls-1" d="M5,21.5H19A1.5,1.5,0,0,0,20.5,20V6.58a1.51,1.51,0,0,0-1.1-1.45A28.06,28.06,0,0,0,12,4.5a28.06,28.06,0,0,0-7.4.63A1.5,1.5,0,0,0,3.5,6.58V20A1.5,1.5,0,0,0,5,21.5Z"/><polyline class="cls-1" points="4.5 21.41 4.5 23.5 7.5 23.5 7.5 21.5"/><polyline class="cls-1" points="16.5 21.5 16.5 23.5 19.5 23.5 19.5 21.41"/><rect class="cls-1" x="0.5" y="8.5" width="1" height="4"/><rect class="cls-1" x="22.5" y="8.5" width="1" height="4"/><line class="cls-1" x1="1.5" y1="8.5" x2="3.5" y2="8.5"/><line class="cls-1" x1="22.5" y1="8.5" x2="20.5" y2="8.5"/><polygon class="cls-1" points="7.5 19.5 5.5 19.5 5.5 18.5 7 18.5 7.5 19.5"/><polygon class="cls-1" points="16.5 19.5 18.5 19.5 18.5 18.5 17 18.5 16.5 19.5"/><path class="cls-1" d="M20.5,14.5a34,34,0,0,1-8.5,1,34,34,0,0,1-8.5-1"/><line class="cls-1" x1="9.5" y1="18.5" x2="14.5" y2="18.5"/><path class="cls-1" d="M16.5,1S16,.5,12,.5,7.5,1,7.5,1"/><line class="cls-1" x1="12" y1="4.5" x2="10" y2="0.55"/><line class="cls-1" x1="12" y1="4.5" x2="14" y2="0.55"/></g></g></svg>