<svg xmlns="http://www.w3.org/2000/svg" viewBox="0 0 50.91 55.62"><title>ferry-love</title><g id="Layer_2" data-name="Layer 2"><g id="Layer_2-2" data-name="Layer 2"><path d="M50.9,34.51l0-.1a1.13,1.13,0,0,0-.05-.2.7.7,0,0,0-.06-.17,1.56,1.56,0,0,0-.13-.26l-.15-.21a1.59,1.59,0,0,0-.61-.5L26.52,21.78a1.74,1.74,0,0,0-.52-.15,2.77,2.77,0,0,0-1.11,0,1.94,1.94,0,0,0-.5.14L1,33.07a1.71,1.71,0,0,0-.6.49,2.12,2.12,0,0,0-.15.21A1.49,1.49,0,0,0,.15,34l-.07.2s0,.09,0,.14l0,.15a2.26,2.26,0,0,0,0,.27,1.79,1.79,0,0,0,.06.4,1.21,1.21,0,0,0,.11.32l.08.16,11,19a1.84,1.84,0,0,0,1.59.92H38.09a1.84,1.84,0,0,0,1.58-.92l11-19.14a2,2,0,0,0,.15-.38c0-.11,0-.22,0-.33A3.13,3.13,0,0,0,50.9,34.51Z" fill="#737373"/><path d="M32.52,0H18.39A1.42,1.42,0,0,0,17,1.42V4.69h17V1.42A1.43,1.43,0,0,0,32.52,0Z" fill="#737373"/><path d="M40.83,6.69H10.08A2.84,2.84,0,0,0,7.25,9.53V27.84L23.52,20a3.87,3.87,0,0,1,1.94-.36,3.85,3.85,0,0,1,1.93.36l16.28,7.86V9.53A2.85,2.85,0,0,0,40.83,6.69Zm-20.71,8h-.19a1,1,0,0,1-.88-.69,2.19,2.19,0,0,0-4.15,0,.94.94,0,0,1-.88.69h-.19A.91.91,0,0,1,13,13.54a4.19,4.19,0,0,1,8,0A.91.91,0,0,1,20.12,14.71Zm17,0h-.19A.94.94,0,0,1,36,14a2.19,2.19,0,0,0-4.15,0,.94.94,0,0,1-.88.69h-.19a.91.91,0,0,1-.88-1.17,4.19,4.19,0,0,1,8.05,0A.91.91,0,0,1,37.08,14.71Z" fill="#737373"/></g></g></svg>