<?xml version="1.0" encoding="iso-8859-1"?>
<!-- Generator: Adobe Illustrator 19.0.0, SVG Export Plug-In . SVG Version: 6.00 Build 0)  -->
<svg version="1.1" id="Capa_1" xmlns="http://www.w3.org/2000/svg" xmlns:xlink="http://www.w3.org/1999/xlink" x="0px" y="0px"
	 viewBox="0 0 512 512" style="enable-background:new 0 0 512 512;" xml:space="preserve">
<g>
	<g>
		<path d="M256.001,0C148.914,0,61.794,92.663,61.794,206.565c0,111.545,180.259,295.062,187.93,302.813
			c1.66,1.677,3.919,2.622,6.276,2.622s4.617-0.945,6.276-2.622c7.671-7.751,187.93-191.259,187.93-302.813
			C450.208,92.663,363.088,0,256.001,0z M256.001,490.452c-32.15-33.766-176.552-190.658-176.552-283.887
			c0-104.165,79.201-188.91,176.552-188.91s176.552,84.745,176.552,188.91C432.553,299.75,288.142,456.686,256.001,490.452z"/>
	</g>
</g>
<g>
	<g>
		<path d="M256.001,97.103c-53.539,0-97.103,43.564-97.103,97.103s43.564,97.104,97.103,97.104s97.103-43.564,97.103-97.103
			S309.54,97.103,256.001,97.103z M256.001,273.655c-43.802,0-79.448-35.646-79.448-79.448s35.646-79.448,79.448-79.448
			c43.811,0,79.448,35.646,79.448,79.448S299.812,273.655,256.001,273.655z"/>
	</g>
</g>
<g>
</g>
<g>
</g>
<g>
</g>
<g>
</g>
<g>
</g>
<g>
</g>
<g>
</g>
<g>
</g>
<g>
</g>
<g>
</g>
<g>
</g>
<g>
</g>
<g>
</g>
<g>
</g>
<g>
</g>
</svg>
