<svg xmlns="http://www.w3.org/2000/svg" viewBox="0 0 24 24"><defs><style>.cls-1{fill:none;stroke:#303c42;stroke-linecap:round;stroke-linejoin:round;}</style></defs><title>Asset 9</title><g id="Layer_2" data-name="Layer 2"><g id="Metro"><path class="cls-1" d="M5,20.5H19A1.5,1.5,0,0,0,20.5,19V7.35A1.47,1.47,0,0,0,19.59,6,20.33,20.33,0,0,0,4.41,6,1.47,1.47,0,0,0,3.5,7.35V19A1.5,1.5,0,0,0,5,20.5Z"/><line class="cls-1" x1="3.5" y1="14.5" x2="20.5" y2="14.5"/><line class="cls-1" x1="12" y1="8.5" x2="12" y2="14.5"/><line class="cls-1" x1="3.5" y1="8.5" x2="20.5" y2="8.5"/><circle class="cls-1" cx="6.5" cy="17.5" r="1"/><circle class="cls-1" cx="17.5" cy="17.5" r="1"/><line class="cls-1" x1="6.5" y1="23.5" x2="7.5" y2="20.5"/><line class="cls-1" x1="16.5" y1="20.5" x2="17.5" y2="23.5"/><path class="cls-1" d="M23.5,23.5V12a11.5,11.5,0,0,0-23,0V23.5"/></g></g></svg>