<svg xmlns="http://www.w3.org/2000/svg" viewBox="0 0 46.77 47.26"><title>metro</title><g id="Layer_2" data-name="Layer 2"><g id="Layer_2-2" data-name="Layer 2"><path d="M46.15,2.34h0S43.88.28,25,0V0H23C3,.19.61,2.35.61,2.35h0A2.8,2.8,0,0,0,0,4.09V44.42a2.85,2.85,0,0,0,2.83,2.84H43.94a2.83,2.83,0,0,0,2.83-2.83V4.09A2.85,2.85,0,0,0,46.15,2.34Zm-27.7.18h9.87a.41.41,0,1,1,0,.81H18.45a.41.41,0,1,1,0-.81ZM10.53,42.05a.86.86,0,0,1-.85-.86,1.82,1.82,0,0,0-3.64,0,.86.86,0,1,1-1.71,0,3.53,3.53,0,0,1,7.06,0A.86.86,0,0,1,10.53,42.05Zm31.05,0a.86.86,0,0,1-.85-.86,1.82,1.82,0,0,0-3.64,0,.86.86,0,1,1-1.71,0,3.53,3.53,0,0,1,7.06,0A.87.87,0,0,1,41.58,42.05Zm.86-9.68A1.58,1.58,0,0,1,41,34.06H5.75a1.57,1.57,0,0,1-1.42-1.68V7.4A1.57,1.57,0,0,1,5.75,5.72H41A1.58,1.58,0,0,1,42.44,7.4Z" style="fill:#5c45a0"/></g></g></svg>