<?xml version="1.0" encoding="iso-8859-1"?>
<!-- Generator: Adobe Illustrator 19.0.0, SVG Export Plug-In . SVG Version: 6.00 Build 0)  -->
<svg version="1.1" id="Capa_1" xmlns="http://www.w3.org/2000/svg" xmlns:xlink="http://www.w3.org/1999/xlink" x="0px" y="0px"
	 viewBox="0 0 512.008 512.008" style="enable-background:new 0 0 512.008 512.008;" xml:space="preserve">
<g>
	<g>
		<path d="M221.867,0.004C99.533,0.004,0,99.528,0,221.87s99.533,221.867,221.867,221.867s221.867-99.524,221.867-221.867
			S344.201,0.004,221.867,0.004z M221.867,426.67c-112.922,0-204.8-91.878-204.8-204.8s91.878-204.8,204.8-204.8
			c112.93,0,204.8,91.878,204.8,204.8S334.797,426.67,221.867,426.67z"/>
	</g>
</g>
<g>
	<g>
		<path d="M502.016,453.729L395.733,347.455c-1.724-1.724-4.07-2.586-6.545-2.483c-2.441,0.145-4.693,1.323-6.204,3.243
			c-10.155,12.928-21.854,24.627-34.765,34.765c-1.92,1.502-3.106,3.763-3.251,6.204c-0.145,2.441,0.759,4.821,2.483,6.545
			l106.274,106.274c6.451,6.451,15.027,10.001,24.141,10.001c9.114,0,17.69-3.55,24.141-10.01
			c6.451-6.443,10.001-15.01,10.001-24.132C512.009,468.748,508.459,460.18,502.016,453.729z M489.924,489.936
			c-6.443,6.451-17.681,6.451-24.132,0l-99.618-99.618c8.644-7.415,16.717-15.488,24.132-24.132l99.618,99.618
			c3.226,3.226,5.001,7.509,5.001,12.066S493.15,486.711,489.924,489.936z"/>
	</g>
</g>
<g>
	<g>
		<path d="M221.867,51.203C127.761,51.203,51.2,127.764,51.2,221.87s76.561,170.667,170.667,170.667s170.667-76.561,170.667-170.667
			S315.972,51.203,221.867,51.203z M221.867,375.47c-84.693,0-153.6-68.907-153.6-153.6s68.907-153.6,153.6-153.6
			s153.6,68.907,153.6,153.6S306.56,375.47,221.867,375.47z"/>
	</g>
</g>
<g>
	<g>
		<path d="M221.867,162.137c-23.526,0-42.667,19.14-42.667,42.667c0,23.526,19.14,42.667,42.667,42.667
			c23.526,0,42.667-19.14,42.667-42.667C264.533,181.277,245.393,162.137,221.867,162.137z M221.867,230.403
			c-14.114,0-25.6-11.486-25.6-25.6c0-14.114,11.486-25.6,25.6-25.6s25.6,11.486,25.6,25.6
			C247.467,218.917,235.981,230.403,221.867,230.403z"/>
	</g>
</g>
<g>
	<g>
		<path d="M221.867,119.461c-47.053,0-85.333,40.576-85.333,90.453c0,48.205,76.032,125.619,79.266,128.887
			c1.604,1.63,3.789,2.534,6.067,2.534s4.463-0.905,6.067-2.534c3.234-3.268,79.266-80.691,79.266-128.887
			C307.2,160.037,268.919,119.461,221.867,119.461z M221.867,320.49c-23.509-25.079-68.267-79.292-68.267-110.566
			c0-40.474,30.626-73.387,68.267-73.387s68.267,32.913,68.267,73.387C290.133,241.164,245.376,295.393,221.867,320.49z"/>
	</g>
</g>
<g>
</g>
<g>
</g>
<g>
</g>
<g>
</g>
<g>
</g>
<g>
</g>
<g>
</g>
<g>
</g>
<g>
</g>
<g>
</g>
<g>
</g>
<g>
</g>
<g>
</g>
<g>
</g>
<g>
</g>
</svg>
