<svg xmlns="http://www.w3.org/2000/svg" viewBox="0 0 47.33 66.29"><defs><style>.cls-1{fill:#b373bf;}</style></defs><title>train</title><g id="Layer_2" data-name="Layer 2"><g id="Layer_1-2" data-name="Layer 1"><path class="cls-1" d="M46.71,21.37h0S44.36,17,24.42,16.65v0H21.79v.05C2.89,17.18.61,21.37.61,21.37h0A2.82,2.82,0,0,0,0,23.12V63.45a2.84,2.84,0,0,0,2.83,2.83H44.5a2.85,2.85,0,0,0,2.83-2.84V23.12A2.85,2.85,0,0,0,46.71,21.37ZM11.29,60.7a4.13,4.13,0,1,1,4.12-4.13A4.12,4.12,0,0,1,11.29,60.7ZM22.17,42.62A1.43,1.43,0,0,1,20.75,44H8.58a1.42,1.42,0,0,1-1.41-1.42V26.15a1.42,1.42,0,0,1,1.41-1.42H20.75a1.43,1.43,0,0,1,1.42,1.42ZM36.46,60.7a4.13,4.13,0,1,1,4.12-4.12A4.13,4.13,0,0,1,36.46,60.7Zm4.12-18.08A1.43,1.43,0,0,1,39.16,44H27a1.43,1.43,0,0,1-1.42-1.42V26.15A1.43,1.43,0,0,1,27,24.73H39.16a1.43,1.43,0,0,1,1.42,1.42Z"/><path class="cls-1" d="M22,15.26a2.35,2.35,0,0,0,3.33,0L31,9.64a2.35,2.35,0,0,0,0-3.33L25.33.69A2.35,2.35,0,0,0,22,.69L16.38,6.31a2.35,2.35,0,0,0,0,3.33Zm1.67-12L28.37,8l-4.7,4.71L19,8Z"/></g></g></svg>