<svg xmlns="http://www.w3.org/2000/svg" viewBox="0 0 47.33 66.28"><defs><style>.cls-1{fill:#b373bf;}.cls-2{fill:none;}</style></defs><title>train-love</title><g id="Layer_2" data-name="Layer 2"><g id="Layer_1-2" data-name="Layer 1"><path class="cls-1" d="M23.66,16A2.34,2.34,0,0,1,22,15.26L16.38,9.64a2.35,2.35,0,0,1,0-3.33L22,.69a2.35,2.35,0,0,1,3.33,0L31,6.31a2.34,2.34,0,0,1,0,3.32l-5.62,5.63A2.35,2.35,0,0,1,23.66,16ZM19,8l4.71,4.71L28.37,8l-4.7-4.7Z"/></g><g id="Layer_2-2" data-name="Layer 2"><rect class="cls-2" x="25.58" y="24.73" width="15" height="19.31" rx="1.42" ry="1.42"/><rect class="cls-2" x="7.17" y="24.73" width="15" height="19.31" rx="1.42" ry="1.42"/><path class="cls-1" d="M46.71,21.37h0S44.36,17,24.42,16.65v0H21.79v.05C2.89,17.18.61,21.37.61,21.37h0A2.8,2.8,0,0,0,0,23.12V63.45a2.85,2.85,0,0,0,2.83,2.83H44.5a2.84,2.84,0,0,0,2.83-2.83V23.12A2.85,2.85,0,0,0,46.71,21.37ZM16.52,58.83a1.29,1.29,0,0,1-1.29-1.29,2.74,2.74,0,0,0-5.48,0,1.29,1.29,0,1,1-2.58,0,5.32,5.32,0,1,1,10.64,0A1.29,1.29,0,0,1,16.52,58.83Zm5.65-16.21A1.43,1.43,0,0,1,20.75,44H8.58a1.42,1.42,0,0,1-1.41-1.42V26.15a1.42,1.42,0,0,1,1.41-1.42H20.75a1.43,1.43,0,0,1,1.42,1.42ZM39.29,58.83A1.29,1.29,0,0,1,38,57.54a2.74,2.74,0,1,0-5.48,0,1.29,1.29,0,1,1-2.58,0,5.32,5.32,0,1,1,10.64,0A1.29,1.29,0,0,1,39.29,58.83Zm1.29-16.21A1.43,1.43,0,0,1,39.16,44H27a1.43,1.43,0,0,1-1.42-1.42V26.15A1.43,1.43,0,0,1,27,24.73H39.16a1.43,1.43,0,0,1,1.42,1.42Z"/></g></g></svg>