<?xml version="1.0" encoding="utf-8"?>
<!-- Generator: Adobe Illustrator 22.1.0, SVG Export Plug-In . SVG Version: 6.00 Build 0)  -->
<svg version="1.1" id="Layer_1" xmlns="http://www.w3.org/2000/svg" xmlns:xlink="http://www.w3.org/1999/xlink" x="0px" y="0px"
	 viewBox="0 0 24 24" style="enable-background:new 0 0 24 24;" xml:space="preserve">
<style type="text/css">
	.st0{fill:none;stroke:#303C42;stroke-linecap:round;stroke-linejoin:round;stroke-miterlimit:10;}
</style>
<g>
	<line class="st0" x1="6.5" y1="23.5" x2="7.5" y2="20.5"/>
	<line class="st0" x1="16.5" y1="20.5" x2="17.5" y2="23.5"/>
	<path class="st0" d="M19,2.5h-3.5V2c0-0.8-0.7-1.5-1.5-1.5h-4C9.2,0.5,8.5,1.2,8.5,2v0.5H5C4.2,2.5,3.5,3.2,3.5,4v12.2
		c0,0.5,0.3,0.9,0.8,1l7.7,1.4l7.7-1.4c0.5-0.1,0.8-0.5,0.8-1V4C20.5,3.2,19.8,2.5,19,2.5z"/>
	<circle class="st0" cx="10.5" cy="2.5" r="0.5"/>
	<circle class="st0" cx="13.5" cy="2.5" r="0.5"/>
	<circle class="st0" cx="7.5" cy="14.5" r="1"/>
	<circle class="st0" cx="16.5" cy="14.5" r="1"/>
	<polyline class="st0" points="19.7,17.1 20.5,19.5 12,21.5 3.5,19.5 4.3,17.1 	"/>
	<rect x="5.5" y="4.5" class="st0" width="5.5" height="6"/>
	<rect x="13" y="4.5" class="st0" width="5.5" height="6"/>
</g>
</svg>
