<svg xmlns="http://www.w3.org/2000/svg" viewBox="0 0 47.33 68.61"><title>train-love</title><g id="Layer_2" data-name="Layer 2"><g id="Layer_1-2" data-name="Layer 1"><path d="M30.64,6.31,25,.69a2.34,2.34,0,0,0-3.32,0L16.07,6.31a2.35,2.35,0,0,0,0,3.33l5.62,5.62a2.34,2.34,0,0,0,3.32,0l5.63-5.62A2.37,2.37,0,0,0,30.64,6.31Zm-7.29,6.37L18.65,8l4.7-4.7L28.06,8Z" style="fill:#737373"/><path d="M46.71,23.7h0S44.36,19.35,24.42,19v0H21.79V19C2.89,19.51.61,23.7.61,23.7h0A2.8,2.8,0,0,0,0,25.44V65.77a2.85,2.85,0,0,0,2.83,2.84H44.5a2.84,2.84,0,0,0,2.83-2.83V25.45A2.82,2.82,0,0,0,46.71,23.7ZM15.24,60.4h-.17a1.44,1.44,0,0,1-1.33-.95,2.62,2.62,0,0,0-4.89,0,1.46,1.46,0,0,1-1.34.95H7.34A1.42,1.42,0,0,1,6,58.5a5.62,5.62,0,0,1,10.58,0A1.42,1.42,0,0,1,15.24,60.4Zm6.92-14.7a1.42,1.42,0,0,1-1.41,1.42H8.39A1.42,1.42,0,0,1,7,45.7V29a1.41,1.41,0,0,1,1.41-1.42H20.75A1.41,1.41,0,0,1,22.16,29Zm3,0V29a1.42,1.42,0,0,1,1.42-1.42H38.93A1.41,1.41,0,0,1,40.35,29V45.7a1.42,1.42,0,0,1-1.42,1.42H26.58A1.43,1.43,0,0,1,25.16,45.7ZM40.41,60.4h-.17a1.45,1.45,0,0,1-1.34-.95,2.62,2.62,0,0,0-4.89,0,1.44,1.44,0,0,1-1.33.95H32.5a1.42,1.42,0,0,1-1.33-1.9,5.62,5.62,0,0,1,10.58,0A1.42,1.42,0,0,1,40.41,60.4Z" style="fill:#737373"/></g></g></svg>