<svg xmlns="http://www.w3.org/2000/svg" viewBox="0 0 16 24"><defs><style>.cls-1{fill:none;stroke:#303c42;stroke-linecap:round;stroke-linejoin:round;}</style></defs><title>Asset 8</title><g id="Layer_2" data-name="Layer 2"><g id="Train_3" data-name="Train 3"><line class="cls-1" x1="13.5" y1="23.5" x2="12.57" y2="20.7"/><line class="cls-1" x1="3.43" y1="20.7" x2="2.5" y2="23.5"/><path class="cls-1" d="M15.5,11a7.5,7.5,0,0,0-15,0v6.48a3,3,0,0,0,1.75,2.73,13.46,13.46,0,0,0,11.5,0,3,3,0,0,0,1.75-2.73Z"/><path class="cls-1" d="M.5,13.5a3,3,0,0,0,1.75,2.73,13.46,13.46,0,0,0,11.5,0A3,3,0,0,0,15.5,13.5"/><circle class="cls-1" cx="4" cy="19" r="0.5"/><circle class="cls-1" cx="12" cy="19" r="0.5"/><path class="cls-1" d="M2.59,5.81c.27,4,1.32,11.71,5.41,11.71s5.14-7.73,5.41-11.71"/><path class="cls-1" d="M12.5,1S12,.5,8,.5,3.5,1,3.5,1"/><line class="cls-1" x1="8" y1="3.5" x2="6" y2="0.55"/><line class="cls-1" x1="8" y1="3.5" x2="10" y2="0.55"/></g></g></svg>