<svg xmlns="http://www.w3.org/2000/svg" viewBox="0 0 45.69 65.13"><title>tram-love</title><g id="Layer_2" data-name="Layer 2"><g id="Layer_2-2" data-name="Layer 2"><path d="M33.85,63.17c0,1.08.33,2,.73,2h1.8c.4,0,.72-.88.72-2V60.25H33.85Z" style="fill:#5c45a0"/><path d="M45.08,14.39s-2.11-3.86-19-4.62V5h7.24a2.48,2.48,0,0,0,0-5H12.85a2.48,2.48,0,0,0,0,5h7.24V9.75C2.76,10.46.61,14.39.61,14.39h0A2.8,2.8,0,0,0,0,16.13V56.46A2.85,2.85,0,0,0,2.83,59.3h40a2.85,2.85,0,0,0,2.84-2.84V16.13a2.75,2.75,0,0,0-.63-1.74ZM13.75,51.25a1,1,0,0,1-1-1,2.13,2.13,0,0,0-4.25,0,1,1,0,0,1-2,0,4.13,4.13,0,0,1,8.25,0A1,1,0,0,1,13.75,51.25Zm24.85,0a1,1,0,0,1-1-1,2.13,2.13,0,0,0-4.25,0,1,1,0,0,1-2,0,4.13,4.13,0,0,1,8.25,0A1,1,0,0,1,38.6,51.25Zm2.75-12a1.42,1.42,0,0,1-1.42,1.41H5.75A1.42,1.42,0,0,1,4.33,39.3V18.89a1.42,1.42,0,0,1,1.42-1.41H39.93a1.42,1.42,0,0,1,1.42,1.41Z" style="fill:#5c45a0"/><path d="M9,63.17c0,1.08.33,2,.73,2h1.79c.4,0,.73-.88.73-2V60.25H9Z" style="fill:#5c45a0"/></g></g></svg>