<svg xmlns="http://www.w3.org/2000/svg" viewBox="0 0 18 24"><defs><style>.cls-1{fill:none;stroke:#303c42;stroke-linecap:round;stroke-linejoin:round;}</style></defs><title>Asset 6</title><g id="Layer_2" data-name="Layer 2"><g id="Tram"><path class="cls-1" d="M13.5,1S13,.5,9,.5,4.5,1,4.5,1"/><line class="cls-1" x1="9" y1="3.5" x2="7" y2="0.55"/><line class="cls-1" x1="9" y1="3.5" x2="11" y2="0.55"/><path class="cls-1" d="M2,20.5H16A1.5,1.5,0,0,0,17.5,19V6.35A1.47,1.47,0,0,0,16.59,5,20.33,20.33,0,0,0,1.41,5,1.47,1.47,0,0,0,.5,6.35V19A1.5,1.5,0,0,0,2,20.5Z"/><line class="cls-1" x1="0.5" y1="14.5" x2="17.5" y2="14.5"/><line class="cls-1" x1="9" y1="7.5" x2="9" y2="14.5"/><line class="cls-1" x1="0.5" y1="7.5" x2="17.5" y2="7.5"/><circle class="cls-1" cx="3.5" cy="17.5" r="1"/><circle class="cls-1" cx="14.5" cy="17.5" r="1"/><line class="cls-1" x1="3.5" y1="23.5" x2="4.5" y2="20.5"/><line class="cls-1" x1="13.5" y1="20.5" x2="14.5" y2="23.5"/></g></g></svg>