<?xml version="1.0" encoding="iso-8859-1"?>
<!-- Generator: Adobe Illustrator 19.0.0, SVG Export Plug-In . SVG Version: 6.00 Build 0)  -->
<svg version="1.1" id="Capa_1" xmlns="http://www.w3.org/2000/svg" xmlns:xlink="http://www.w3.org/1999/xlink" x="0px" y="0px"
	 viewBox="0 0 512.001 512.001" style="enable-background:new 0 0 512.001 512.001;" xml:space="preserve">
<g>
	<g>
		<path d="M256.001,0C148.915,0,61.795,92.663,61.795,206.565c0,111.554,180.259,295.053,187.93,302.813
			c1.66,1.686,3.919,2.622,6.276,2.622s4.617-0.936,6.276-2.622c7.671-7.76,187.93-191.259,187.93-302.813
			C450.209,92.663,363.089,0,256.001,0z M256.001,490.461C223.852,456.678,79.449,299.75,79.449,206.565
			c0-104.157,79.201-188.91,176.552-188.91s176.552,84.754,176.552,188.919C432.553,299.75,288.152,456.686,256.001,490.461z"/>
	</g>
</g>
<g>
	<g>
		<path d="M256.001,114.759c-43.811,0-79.448,35.637-79.448,79.448c0,43.811,35.637,79.448,79.448,79.448
			c43.811,0,79.448-35.637,79.448-79.448C335.449,150.396,299.813,114.759,256.001,114.759z M256.001,256
			c-34.074,0-61.793-27.727-61.793-61.793c0-34.066,27.719-61.793,61.793-61.793c34.074,0,61.793,27.727,61.793,61.793
			C317.795,228.273,290.076,256,256.001,256z"/>
	</g>
</g>
<g>
	<g>
		<path d="M256.001,44.138c-82.75,0-150.069,67.319-150.069,150.069s67.319,150.069,150.069,150.069s150.069-67.319,150.069-150.069
			S338.751,44.138,256.001,44.138z M256.001,326.621c-73.013,0-132.414-59.401-132.414-132.414S182.988,61.793,256.001,61.793
			s132.414,59.401,132.414,132.414S329.014,326.621,256.001,326.621z"/>
	</g>
</g>
<g>
	<g>
		<path d="M256.001,88.276c-4.873,0-8.828,3.946-8.828,8.828v52.966c0,4.882,3.955,8.828,8.828,8.828s8.828-3.946,8.828-8.828
			V97.103C264.829,92.222,260.874,88.276,256.001,88.276z"/>
	</g>
</g>
<g>
	<g>
		<path d="M256.001,229.517c-4.873,0-8.828,3.946-8.828,8.828v52.966c0,4.882,3.955,8.828,8.828,8.828s8.828-3.946,8.828-8.828
			v-52.966C264.829,233.463,260.874,229.517,256.001,229.517z"/>
	</g>
</g>
<g>
	<g>
		<path d="M353.105,185.379h-52.966c-4.873,0-8.828,3.946-8.828,8.828c0,4.882,3.955,8.828,8.828,8.828h52.966
			c4.873,0,8.828-3.946,8.828-8.828C361.933,189.325,357.978,185.379,353.105,185.379z"/>
	</g>
</g>
<g>
	<g>
		<path d="M211.863,185.379h-52.966c-4.873,0-8.828,3.946-8.828,8.828c0,4.882,3.955,8.828,8.828,8.828h52.966
			c4.873,0,8.828-3.946,8.828-8.828C220.691,189.325,216.736,185.379,211.863,185.379z"/>
	</g>
</g>
<g>
	<g>
		<path d="M256.001,423.724c-4.873,0-8.828,3.946-8.828,8.828v70.621c0,4.882,3.955,8.828,8.828,8.828s8.828-3.946,8.828-8.828
			v-70.621C264.829,427.67,260.874,423.724,256.001,423.724z"/>
	</g>
</g>
<g>
</g>
<g>
</g>
<g>
</g>
<g>
</g>
<g>
</g>
<g>
</g>
<g>
</g>
<g>
</g>
<g>
</g>
<g>
</g>
<g>
</g>
<g>
</g>
<g>
</g>
<g>
</g>
<g>
</g>
</svg>
