<svg xmlns="http://www.w3.org/2000/svg" viewBox="0 0 20 24"><defs><style>.cls-1{fill:none;stroke:#303c42;stroke-linecap:round;stroke-linejoin:round;}</style></defs><title>Asset 10</title><g id="Layer_2" data-name="Layer 2"><g id="Ship1"><path class="cls-1" d="M10,23.5c1.5-1,6-3,7-3.5,0-1,2.5-6.5,2.5-6.5s-8.5-4-9.5-4-9.5,4-9.5,4S3,19,3,20C4,20.5,8.5,22.5,10,23.5Z"/><polyline class="cls-1" points="11.5 3.56 11.5 0.5 8.5 0.5 8.5 3.56"/><path class="cls-1" d="M17.42,12.53l-.92-5s-2-1-6.5-1-6.5,1-6.5,1l-.92,5"/><path class="cls-1" d="M14.93,7,14.5,4a20.5,20.5,0,0,0-9,0L5.07,7"/><ellipse class="cls-1" cx="7" cy="14.5" rx="0.5" ry="1"/><ellipse class="cls-1" cx="13" cy="14.5" rx="0.5" ry="1"/></g></g></svg>